<svg id="Capa_1" enable-background="new 0 0 512.146 512.146" height="512" viewBox="0 0 512.146 512.146" width="512" xmlns="http://www.w3.org/2000/svg"><path d="m504.263 168.662h-496.22c5-71.49 57.81-120.78 107.69-123.94 80.13-5.09 123.43 56.25 140.42 88.19 16.99-31.94 60.29-93.28 140.42-88.19 49.88 3.16 102.69 52.45 107.69 123.94z" fill="#58565b"/><path d="m427.933 342.322c-37.37 39.36-90.38 79.76-163.15 119.26l-8.63 4.98c-29.519-17.034-108.982-58.099-171.78-124.24z" fill="#fee94f"/><path d="m427.933 342.322h-343.56c-60.1-63.27-79.82-123.86-76.33-173.66h496.22c3.49 49.8-16.23 110.39-76.33 173.66z" fill="#ea5172"/><path d="m276.153 132.912c15.578-29.286 53.282-83.281 121.209-88.129-55.708-4.084-100.646 24.779-131.209 71.266 4.01 6.098 7.33 11.844 10 16.863z" fill="#474549"/><path d="m134.943 44.783c-6.155-.439-12.553-.484-19.211-.061-49.88 3.16-102.69 52.45-107.69 123.94h20c4.974-71.114 57.255-120.252 106.901-123.879z" fill="#474549"/><path d="m104.373 342.322h-20c37.37 39.36 90.38 79.76 163.15 119.26l8.63 4.98c9.301-5.367 8.362-4.838 10-5.73-72.061-39.262-124.647-79.399-161.78-118.51z" fill="#f6d600"/><path d="m28.043 168.662h-20c-3.49 49.8 16.23 110.39 76.33 173.66h20c-60.1-63.27-79.82-123.86-76.33-173.66z" fill="#e21743"/><path d="m512.109 176.162-.854-15h-.157c-8.167-71.42-61.981-120.626-114.05-123.925-61.533-3.914-109.591 29.472-140.896 80.57-31.266-51.035-79.212-84.489-140.894-80.57-52.062 3.298-105.883 52.496-114.05 123.925h-.158l-1.05 15h.203c-.295 13.872 1.122 28.055 4.244 42.278l14.651-3.217c-2.891-13.17-4.198-26.277-3.899-39.062h481.906c.881 37.831-11.963 94.018-72.41 158.66h-337.085c-32.152-34.384-53.922-69.757-64.724-105.178l-14.348 4.375c10.392 34.079 30.17 67.925 58.864 100.803l13.778 15c40.234 41.736 94.941 81.528 162.678 118.305l12.293 7.094s65.853-37.88 89.141-53.9l-8.501-12.358c-22.88 15.739-80.64 48.94-80.64 48.94-25.255-14.559-94.137-50.278-153.796-108.081h307.587c-17.652 17.097-37.928 33.936-60.471 50.209l8.779 12.162c27.827-20.088 52.319-41.06 72.87-62.371l13.783-15c55.733-63.837 68.026-119.942 67.206-158.659zm-495.797-15c7.986-63.197 55.449-106.139 99.897-108.955 32.998-2.092 62.834 7.506 88.677 28.541 21.897 17.823 36.365 40.12 44.646 55.687l6.622 12.447 6.622-12.447c8.28-15.567 22.748-37.864 44.646-55.687 25.844-21.034 55.678-30.635 88.679-28.541 44.413 2.814 91.904 45.712 99.896 108.955z"/><path d="m293.785 142.52-12.863-7.716c2.706-4.511 5.598-8.906 8.595-13.063l12.167 8.773c-2.752 3.816-5.41 7.855-7.899 12.006zm16.785-23.206-11.29-9.876c3.526-4.032 7.229-7.844 11.004-11.33l10.177 11.02c-3.386 3.127-6.714 6.554-9.891 10.186zm20.784-19.108-8.766-12.173c21.578-15.538 45.862-22.552 72.557-20.857l-.95 14.97c-23.068-1.465-44.04 4.521-62.841 18.06z" fill="#fff"/></svg>